<mxfile host="app.diagrams.net" modified="2024-02-04T05:11:57.598Z" agent="Mozilla/5.0 (Windows NT 10.0; Win64; x64) AppleWebKit/537.36 (KHTML, like Gecko) Chrome/120.0.0.0 Safari/537.36" version="23.1.1" etag="1mc9_FW9GNJjggM-npf3" type="github">
  <diagram name="第 1 页" id="XgLIcDSXAd1F9emApaU4">
    <mxGraphModel>
      <root>
        <mxCell id="0" />
        <mxCell id="1" parent="0" />
      </root>
    </mxGraphModel>
  </diagram>
</mxfile>
